<?xml version="1.0" encoding="iso-8859-1"?>
<!-- Generator: Adobe Illustrator 19.0.0, SVG Export Plug-In . SVG Version: 6.00 Build 0)  -->
<svg version="1.1" id="Layer_1" xmlns="http://www.w3.org/2000/svg" xmlns:xlink="http://www.w3.org/1999/xlink" x="0px" y="0px"
	 viewBox="0 0 512 512" style="enable-background:new 0 0 512 512;" xml:space="preserve">
<polygon style="fill:#FFBE00;" points="235.052,433.25 399.548,412.302 399.548,99.698 235.052,78.75 "/>
<rect x="112.452" y="99.695" style="fill:#FFE074;" width="143.546" height="312.606"/>
<path style="fill:#0072C5;" d="M256,512h119.18c13.458,0,24.367-10.909,24.367-24.367v-75.331H256l-16.396,49.849L256,512z"/>
<path style="fill:#0089D3;" d="M112.453,412.302v75.331c0,13.458,10.909,24.367,24.367,24.367H256v-99.698H112.453z"/>
<path style="fill:#0072C5;" d="M375.18,0H256l-20.948,49.848L256,99.697h143.547V24.366C399.548,10.909,388.637,0,375.18,0z"/>
<path style="fill:#0089D3;" d="M256,0H136.82c-13.458,0-24.367,10.909-24.367,24.367v75.331H256L256,0L256,0z"/>
<g>
	<rect x="187.794" y="34.15" style="fill:#63C8EE;" width="78.327" height="31.397"/>
	<rect x="294.312" y="34.15" style="fill:#63C8EE;" width="29.895" height="31.397"/>
</g>
<polygon style="fill:#FC2B32;" points="256,141.054 247.279,233.37 256,348.746 271.698,348.746 271.698,201.153 326.156,255.611 
	348.356,233.41 "/>
<polygon style="fill:#FF5D65;" points="163.644,233.41 185.844,255.611 240.302,201.153 240.302,348.746 256,348.746 256,141.054 
	"/>
<rect x="230.849" y="446.45" style="fill:#63C8EE;" width="50.308" height="31.397"/>
<g>
</g>
<g>
</g>
<g>
</g>
<g>
</g>
<g>
</g>
<g>
</g>
<g>
</g>
<g>
</g>
<g>
</g>
<g>
</g>
<g>
</g>
<g>
</g>
<g>
</g>
<g>
</g>
<g>
</g>
</svg>
